<?xml version="1.0" encoding="utf-8"?>
<!-- Generator: Adobe Illustrator 23.0.6, SVG Export Plug-In . SVG Version: 6.00 Build 0)  -->
<svg version="1.1" id="Layer_1" xmlns="http://www.w3.org/2000/svg" xmlns:xlink="http://www.w3.org/1999/xlink" x="0px" y="0px"
	 viewBox="0 0 81.3 81.3" style="enable-background:new 0 0 81.3 81.3;" xml:space="preserve">
<style type="text/css">
	.st0{fill:none;stroke:#004C97;stroke-width:3;stroke-linecap:round;stroke-linejoin:round;stroke-miterlimit:10;}
	.st1{fill:none;stroke:#004C97;stroke-width:3;stroke-linecap:round;stroke-miterlimit:10;}
</style>
<g>
	<path class="st0" d="M40.4,19.4c0,0-3.3-8.2-11.7-8.2s-11.6,7.3-11.6,11.6c0,7.8,4.8,14.1,10.1,18.7"/>
	<path class="st0" d="M40.6,19.4c0,0,3.3-8.2,11.7-8.2s11.6,7.3,11.6,11.6c0,6.5-3.4,12-7.6,16.3"/>
</g>
<path class="st0" d="M40.6,49.9"/>
<g>
	<path class="st1" d="M36.1,52.5l10.3,3.1c0,0,2.9,0.9,6.7-0.7c4.6-1.9,16.5-6.5,16.5-6.5s4.6-2,7.8,1c2.6,2.4,1.6,6.1-1.4,7.8
		C73.3,58.8,54.3,68,54.3,68s-5.9,3-11.5,2c-5.6-1.1-18.4-4.4-18.4-4.4 M12.7,45.9c0,0,12.3-4.3,18.1-4.4c6.7-0.1,18.6,4.5,21.8,8.6
		c1.3,1.6,1.4,4.6-1.6,5.5"/>
	<polyline class="st0" points="12.6,68.2 12.6,41.4 2.5,41.4 	"/>
	<path class="st0" d="M2.5,41.4v22.8c0,0,0,4,4,4h6.1"/>
</g>
</svg>
