<?xml version="1.0" encoding="utf-8"?>
<!-- Generator: Adobe Illustrator 23.0.6, SVG Export Plug-In . SVG Version: 6.00 Build 0)  -->
<svg version="1.1" id="Layer_1" xmlns="http://www.w3.org/2000/svg" xmlns:xlink="http://www.w3.org/1999/xlink" x="0px" y="0px"
	 viewBox="0 0 81.3 81.3" style="enable-background:new 0 0 81.3 81.3;" xml:space="preserve">
<style type="text/css">
	.st0{fill:none;stroke:#004C97;stroke-width:3;stroke-linecap:round;stroke-miterlimit:10;}
	.st1{fill:none;stroke:#004C97;stroke-width:3;stroke-linecap:round;stroke-linejoin:round;stroke-miterlimit:10;}
</style>
<g>
	<path class="st0" d="M64.6,66.4"/>
	<path class="st0" d="M46.6,41.6"/>
	<g>
		<path class="st0" d="M25.7,22.8c0,0-1.4,1.4-4.1,4.1s-2.7,7,0,9.7l15.9,15.9"/>
		<path class="st0" d="M37.9,52.9c2.7,2.7,6.9,2.8,9.5,0.1l4.6-4.6"/>
	</g>
	<path class="st0" d="M36,68.1"/>
	<g>
		<path class="st0" d="M12.2,6.1c0,0-25.5,17.9,6.2,49.6"/>
		<path class="st0" d="M68.3,62.2c0,0-2.6,4-7.7,7"/>
		<path class="st0" d="M12,6.3c2-1.6,4.6-1.7,6.6,0.7c0.7,0.9,7.2,8.7,7.2,8.7"/>
		<path class="st0" d="M68.1,62.5c1.6-2,1.7-4.6-0.7-6.6c-2-1.6-8.9-7.4-8.9-7.4c-2-1.7-4.6-2-6.8,0.2"/>
		<path class="st0" d="M25.9,15.9c1.7,2.1,2,4.6-0.2,6.8"/>
		<path class="st0" d="M47.1,72.2c-7.5-0.6-17-4.8-28.4-16.2"/>
		<path class="st1" d="M78.8,76.1c-0.8-0.8-1.7-1.4-2.6-1.8c-0.9-0.3-1.8-0.5-2.6-0.5c-0.8,0-1.8,0-3.1,0.1c-1.7,0.1-3,0.1-4,0
			s-2-0.7-2.9-1.6l-3-3.1"/>
	</g>
</g>
</svg>
